<?xml version="1.0" standalone="no"?>
<!DOCTYPE svg PUBLIC "-//W3C//DTD SVG 1.1//EN" "http://www.w3.org/Graphics/SVG/1.1/DTD/svg11.dtd" >
<!--
2013-9-30: Created.
-->
<svg>
<metadata>
Created by iconfont
</metadata>
<defs>

<font id="iconfont" horiz-adv-x="1024" >
  <font-face
    font-family="iconfont"
    font-weight="500"
    font-stretch="normal"
    units-per-em="1024"
    ascent="896"
    descent="-128"
  />
    <missing-glyph />
    
    <glyph glyph-name="showviewvisible" unicode="&#59859;" d="M512 384m-128 0a128 128 0 1 1 256 0 128 128 0 1 1-256 0ZM512 640C220.416 640 42.666667 418.346667 42.666667 384s177.749333-256 469.333333-256 469.333333 221.653333 469.333333 256-177.749333 256-469.333333 256z m0-426.666667a170.666667 170.666667 0 1 0 170.666667 170.666667 170.837333 170.837333 0 0 0-170.666667-170.666667z"  horiz-adv-x="1024" />

    
    <glyph glyph-name="chevron-up" unicode="&#59214;" d="M512 572.330667l-243.498667-243.498667 60.330667-60.330667L512 451.669333l183.168-183.168 60.330667 60.330667z"  horiz-adv-x="1024" />

    
    <glyph glyph-name="text" unicode="&#59418;" d="M960 640 960 832l-192 0 0-64L192 768 192 832 0 832l0-192 64 0 0-512L0 128l0-192 192 0 0 64 576 0 0-64 192 0 0 192-64 0L896 640 960 640zM832 768l64 0 0-64-64 0L832 768zM64 768l64 0 0-64L64 704 64 768zM64 0l0 64 64 0 0-64L64 0zM896 0l-64 0 0 64 64 0L896 0zM832 128l-64 0 0-64L192 64l0 64L128 128 128 640l64 0L192 704l576 0 0-64 64 0L832 128zM704 544C704 526.336 689.664 512 672 512L512 512l0-288C512 206.336 497.664 192 480 192S448 206.336 448 224L448 512 288 512C270.336 512 256 526.336 256 544S270.336 576 288 576l384 0C689.664 576 704 561.664 704 544z"  horiz-adv-x="1024" />

    
    <glyph glyph-name="custom-clear" unicode="&#58894;" d="M885.036 347.882h-15.94v-243.097c0-70.938 15.94-131.517 15.94-131.517 0-17.53-14.347-31.882-31.883-31.882l-685.463-0c-17.532 0-31.878 14.352-31.878 31.882 0 0 15.94 58.19 15.94 128.33v246.284h-15.94c-17.537 0-31.883 14.35-31.883 31.888l0 159.404c0 17.537 14.346 31.884 31.883 31.884h270.995l0 175.351c0 43.838 35.868 79.705 79.707 79.705h47.822c43.838 0 79.704-35.867 79.704-79.705v-175.35h270.996c17.537 0 31.882-14.347 31.882-31.884v-159.411c-0.001-17.533-14.346-31.883-31.883-31.883v0 0zM335.072-26.726v211.218c0 6.374 5.583 11.951 11.956 11.951h7.966c6.38 0 11.961-5.577 11.961-11.951v-211.218h135.496l0 211.218c0 6.374 5.581 11.951 11.954 11.951h7.965c6.385 0 11.962-5.577 11.962-11.951v-211.218h127.526v211.218c0 6.374 5.577 11.951 11.951 11.951h7.973c6.377 0 11.955-5.577 11.955-11.951v-211.218h159.412c0 0-15.939 57.388-15.939 128.325l0 246.284h-653.579v-246.284c0-70.937-15.945-128.325-15.945-128.325h167.383zM885.036 523.238c0 8.769-7.171 15.937-15.94 15.937l-286.939 0v199.262c0 31.086-24.709 55.794-55.795 55.794h-31.878c-31.085 0-55.799-24.708-55.799-55.794v-199.262l-286.934 0c-8.77 0-15.94-7.168-15.94-15.937v-127.529c0-8.77 7.17-15.94 15.94-15.94h717.344c8.769 0 15.94 7.17 15.94 15.94l0 127.529h0.001zM885.036 347.882h-15.94v-243.097c0-70.938 15.94-131.517 15.94-131.517 0-17.53-14.347-31.882-31.883-31.882l-685.463-0c-17.532 0-31.878 14.352-31.878 31.882 0 0 15.94 58.19 15.94 128.33v246.284h-15.94c-17.537 0-31.883 14.35-31.883 31.888l0 159.404c0 17.537 14.346 31.884 31.883 31.884h270.995l0 175.351c0 43.838 35.868 79.705 79.707 79.705h47.822c43.838 0 79.704-35.867 79.704-79.705v-175.35h270.996c17.537 0 31.882-14.347 31.882-31.884v-159.411c-0.001-17.533-14.346-31.883-31.883-31.883v0 0zM335.072-16.493v200.985c0 6.374 5.583 11.951 11.956 11.951h7.966c6.38 0 11.961-5.577 11.961-11.951v-200.985h135.496l0 200.985c0 6.374 5.581 11.951 11.954 11.951h7.965c6.385 0 11.962-5.577 11.962-11.951v-200.985h127.526v200.985c0 6.374 5.577 11.951 11.951 11.951h7.973c6.377 0 11.955-5.577 11.955-11.951v-200.985h149.179c0 0-15.939 47.155-15.939 118.092l0 246.284h-633.112v-246.284c0-70.937-15.945-118.092-15.945-118.092h157.15v0zM874.802 513.005c0 8.769-7.171 15.937-15.94 15.937l-286.939-0v209.495c0 31.086-24.709 45.561-55.795 45.561h-11.412c-31.085 0-55.799-14.475-55.799-45.561v-209.495h-286.934c-8.77 0-15.94-7.168-15.94-15.937v-107.062c0-8.77 7.17-15.94 15.94-15.94h696.878c8.769 0 15.94 7.17 15.94 15.94v107.062h0.001zM885.036 523.238z"  horiz-adv-x="1024" />

    
    <glyph glyph-name="color" unicode="&#59329;" d="M632.6272 343.36767999999995l-66.88768 199.0656-71.10656-199.0656h137.99424zM534.528 609.28h67.50208l159.90784-450.56h-65.41312l-44.68736 134.9632h-174.2848L429.83424 158.72000000000003H368.64l165.888 450.56zM286.72 76.79999999999995h573.44v-122.88H286.72z"  horiz-adv-x="1105" />

    
    <glyph glyph-name="positionleft" unicode="&#59326;" d="M384 64l0-64L320 0l0 64L384 64zM448 64l0-64 64 0 0 64L448 64zM576 64l0-64 64 0 0 64L576 64zM704 64l0-64 64 0 0 64L704 64zM320 832l0-64 64 0L384 832 320 832zM448 832l0-64 64 0L512 832 448 832zM576 832l0-64 64 0L640 832 576 832zM704 832l0-64 64 0L768 832 704 832zM832 448l0-64 64 0L896 448 832 448zM832 64l0-64 64 0 0 64L832 64zM832 832l0-64 64 0L896 832 832 832zM832 192l0-64 64 0 0 64L832 192zM832 320l0-64 64 0L896 320 832 320zM832 576l0-64 64 0L896 576 832 576zM832 704l0-64 64 0L896 704 832 704zM70.016 832l0-832 179.968 0L249.984 832 70.016 832z"  horiz-adv-x="1024" />

    
    <glyph glyph-name="positionright" unicode="&#59327;" d="M576 64l0-64 64 0 0 64L576 64zM512 64l0-64L448 0l0 64L512 64zM384 64l0-64L320 0l0 64L384 64zM256 64l0-64L192 0l0 64L256 64zM640 832l0-64L576 768 576 832 640 832zM512 832l0-64L448 768 448 832 512 832zM384 832l0-64L320 768 320 832 384 832zM256 832l0-64L192 768 192 832 256 832zM128 448l0-64L64 384 64 448 128 448zM128 64l0-64L64 0l0 64L128 64zM128 832l0-64L64 768 64 832 128 832zM128 192l0-64L64 128l0 64L128 192zM128 320l0-64L64 256 64 320 128 320zM128 576l0-64L64 512 64 576 128 576zM128 704l0-64L64 640 64 704 128 704zM889.984 832l0-832-179.968 0L710.016 832 889.984 832z"  horiz-adv-x="1024" />

    
    <glyph glyph-name="horizontal-center" unicode="&#59299;" d="M213.333333 213.333333l170.666667 170.666667-170.666667 170.666667v-128H85.333333v-85.333334h128z m597.333334 213.333334V554.666667l-170.666667-170.666667 170.666667-170.666667v128h128v85.333334h-88.405334z m-341.333334-298.666667h85.333334v-128h-85.333334z m0 213.333333h85.333334v-128h-85.333334z m0 213.333334h85.333334v-128h-85.333334z m0 213.333333h85.333334v-128h-85.333334z"  horiz-adv-x="1024" />

    
    <glyph glyph-name="vertical-center" unicode="&#59466;" d="M554.666667 682.666667V810.666667h-85.333334v-128H341.333333l170.666667-170.666667 170.666667 170.666667z m0-725.333334v128h128l-170.666667 170.666667-170.666667-170.666667h128v-128zM128 426.666667h128v-85.333334H128z m213.333333 0h128v-85.333334H341.333333z m213.333334 0h128v-85.333334h-128z m213.333333 0h128v-85.333334h-128z"  horiz-adv-x="1024" />

    
    <glyph glyph-name="positionbottom" unicode="&#59325;" d="M128 320 64 320l0-64 64 0L128 320zM128 384 64 384 64 448l64 0L128 384zM128 512 64 512 64 576l64 0L128 512zM128 640 64 640 64 704l64 0L128 640zM896 256l-64 0L832 320l64 0L896 256zM896 384l-64 0L832 448l64 0L896 384zM896 512l-64 0L832 576l64 0L896 512zM896 640l-64 0L832 704l64 0L896 640zM512 768 448 768 448 832l64 0L512 768zM128 768 64 768 64 832l64 0L128 768zM896 768l-64 0L832 832l64 0L896 768zM256 768 192 768 192 832l64 0L256 768zM384 768 320 768 320 832l64 0L384 768zM640 768 576 768 576 832l64 0L640 768zM768 768l-64 0L704 832l64 0L768 768zM896 6.016 64 6.016l0 179.968 832 0L896 6.016z"  horiz-adv-x="1024" />

    
    <glyph glyph-name="positiontop" unicode="&#59328;" d="M128 512 64 512 64 576l64 0L128 512zM128 448 64 448l0-64 64 0L128 448zM128 320 64 320l0-64 64 0L128 320zM128 192 64 192l0-64 64 0L128 192zM896 576l-64 0 0-64 64 0L896 576zM896 448l-64 0 0-64 64 0L896 448zM896 320l-64 0 0-64 64 0L896 320zM896 192l-64 0 0-64 64 0L896 192zM512 64 448 64l0-64 64 0L512 64zM128 64 64 64l0-64 64 0L128 64zM896 64l-64 0 0-64 64 0L896 64zM256 64 192 64l0-64 64 0L256 64zM384 64 320 64l0-64 64 0L384 64zM640 64 576 64l0-64 64 0L640 64zM768 64l-64 0 0-64 64 0L768 64zM896 825.984 64 825.984l0-179.968 832 0L896 825.984z"  horiz-adv-x="1024" />

    
    <glyph glyph-name="email" unicode="&#59019;" d="M942.08 695.296s-1.024 0 0 0c-1.024 2.048-1.024 4.096-2.048 6.144-1.024 1.024-2.048 3.072-3.072 4.096l-1.024 1.024-1.024 1.024c-1.024 1.024-2.048 2.048-4.096 2.048h-1.024c-2.048 1.024-3.072 1.024-5.12 1.024h-1.024C788.48 732.16 649.216 742.4 512 742.4s-276.48-10.24-412.672-30.72h-1.024c-2.048 0-3.072-1.024-5.12-1.024H92.16c-1.024-1.024-3.072-1.024-4.096-2.048l-1.024-1.024-1.024-1.024c-1.024-1.024-2.048-2.048-3.072-4.096v-1.024c-1.024-2.048-1.024-3.072-2.048-5.12C61.44 591.872 51.2 487.424 51.2 384s10.24-207.872 30.72-311.296c2.048-8.192 8.192-15.36 17.408-16.384C235.52 35.84 374.784 25.6 512 25.6s276.48 10.24 412.672 30.72c8.192 1.024 15.36 8.192 17.408 16.384 20.48 103.424 30.72 207.872 30.72 311.296s-10.24 207.872-30.72 311.296z m-60.416-19.456c-44.032-50.176-96.256-97.28-156.672-142.336-70.656-53.248-142.336-95.232-212.992-126.976-77.824 36.864-148.48 78.848-212.992 126.976-56.32 41.984-108.544 90.112-156.672 142.336C265.216 693.248 389.12 701.44 512 701.44s246.784-8.192 369.664-25.6z m22.528-580.608C774.144 75.776 642.048 66.56 512 66.56s-262.144 9.216-392.192 28.672C101.376 190.464 92.16 287.744 92.16 384c0 87.04 8.192 175.104 22.528 262.144 48.128-53.248 102.4-102.4 159.744-145.408 69.632-52.224 144.384-96.256 229.376-135.168 3.072-1.024 6.144-2.048 8.192-2.048 3.072 0 5.12 1.024 8.192 2.048 76.8 32.768 153.6 78.848 229.376 135.168 60.416 46.08 114.688 94.208 159.744 144.384C924.672 558.08 931.84 471.04 931.84 384c0-96.256-9.216-193.536-27.648-288.768z"  horiz-adv-x="1024" />

    
    <glyph glyph-name="tel" unicode="&#58887;" d="M745.027799-11.260206l2.146896 0 1.707898 1.154289 0-0.022513c23.802102 15.876596 80.995709 55.70572 120.558773 97.195669 22.396079 23.468504 38.861076 46.866401 38.861076 64.934918 0 27.206642-32.259728 72.64246-73.197092 110.649076-37.925774 35.237549-82.565461 63.113433-114.999151 63.113433-6.553253 0-12.610202-1.108241-18.011212-3.208065l0.01228-0.022513c-5.272074-2.077312-10.026354-5.192256-14.0766-9.253758l-0.022513 0.022513C667.677107 292.97282 654.847917 272.296919 644.532991 255.658983l0.022513-0.022513L644.532991 255.590422l-0.25378-0.36839c-9.28855-14.999622-15.865339-25.176402-23.422456-32.191166-9.195429-8.538467-18.599613-12.045337-32.249495-12.045337-49.255821 0-101.199866 51.944046-151.504576 102.249779l-0.046049 0.046049 0.022513 0.022513c-24.460088 24.460088-49.347918 49.336662-68.396763 73.980945-20.249183 26.214035-33.910321 52.289923-33.910321 77.534887 0 13.661138 3.507894 23.075555 12.045337 32.259728 6.992251 7.54586 17.180288 14.145162 32.178887 23.422456 8.492418 5.238304 18.033725 11.145851 27.887141 18.2302 9.610892 6.900154 19.810185 15.160281 30.17116 25.521257 5.757121 5.745864 11.214413 14.376429 12.368702 26.768667 0.957815 10.383488-0.945535 23.468504-7.741311 39.897685l-0.022513-0.022513c-13.960966 33.713846-45.044916 72.435753-78.562287 102.871949-32.513508 29.537733-66.3655 50.767244-87.296205 50.767244-18.068518 0-41.490973-16.476253-64.958454-38.860053-41.467437-39.575344-81.307817-96.734158-97.184413-120.54854l0.011256 0-1.14201-1.730411 0-2.145873c0-51.66673 26.491351-130.817418 65.974597-210.245422 39.71349-79.911004 92.430132-159.592788 144.559397-211.721029 52.139497-52.128241 131.809001-104.833627 211.721029-144.570653C614.221638 15.232169 693.360046-11.260206 745.027799-11.260206M751.246431-38.696068l-6.218632 0c-55.842843 0-139.424446 27.644617-222.35932 68.88181-82.461083 40.98239-164.842349 95.557356-218.989573 149.693324-54.148247 54.159504-108.733447 136.562259-149.71686 219.013109-41.224914 82.934874-68.88181 166.515455-68.88181 222.35932l0 6.229888 0 4.084015 2.307555 3.484358 3.449565 5.192256 0.057305 0.046049c16.372899 24.552186 57.655118 83.764775 101.084233 125.2097 28.072359 26.767644 57.621349 46.475498 83.824127 46.475498 27.944446 0 68.615751-24.229844 105.733113-57.94369 36.137035-32.813337 69.885674-75.135234 85.426625-112.609731l0-0.069585c8.665357-20.929682 11.018961-38.398542 9.680477-52.797483-1.86958-20.214391-10.787694-34.290991-20.190855-43.705408-11.237949-11.237949-22.672372-20.468171-33.586956-28.313859-10.683317-7.661494-20.641109-13.82282-29.490661-19.291368-13.003152-8.030907-21.679765-13.615089-26.513864-18.807345-3.287883-3.553942-4.638647-7.522324-4.638647-13.615089 0-18.322297 11.31879-39.067784 28.118408-60.804854 17.97642-23.283286 42.241057-47.536666 66.054415-71.327512l0.058328 0 0.046049-0.046049c46.348608-46.359864 94.196359-94.196359 132.109854-94.196359 6.080485 0 10.061147 1.338485 13.603833 4.637624 5.145184 4.776793 10.673084 13.337773 18.564821 26.099425l-0.022513 0.022513 0.022513 0.046049 0.265036 0.369414c11.111059 17.975397 24.957415 40.359196 47.594995 63.020312l0 0.046049c6.737448 6.738471 14.630209 11.883655 23.39892 15.369036l0.046049 0c8.641821 3.391237 18.079774 5.145184 28.025287 5.145184 39.805588 0 91.276866-31.151487 133.656069-70.5191 45.862537-42.552142 81.988316-95.880721 81.988316-130.679271 0-26.191522-19.695574-55.750745-46.474474-83.810824-41.444924-43.429115-100.68105-84.711334-125.221979-101.095489l-0.057305-0.047072-5.180999-3.437286-3.483334-2.307555L751.246431-38.696068z"  horiz-adv-x="1024" />

    
    <glyph glyph-name="anchor" unicode="&#60236;" d="M532.174482-49.44897c-73.892941 0-147.151431 14.310937-211.855082 41.386596-58.259892 24.378224-108.421338 58.56586-146.101519 99.43671l-29.090549-29.993105c-5.500271-5.53097-13.674441-8.834202-21.86703-8.834202-3.795443 0-7.058766 0.815575-9.442046 1.411139l-1.102101 0.276293-1.050935 0.434905c-11.119245 4.605901-18.676361 15.635095-19.031449 27.635407L77.633125 235.634928l0 0.748037c0 17.180288 13.458523 30.638811 30.638811 30.638811l0.696872 0 0.694825-0.063445 153.575748-13.979386c12.157901-0.316202 22.965038-7.690146 27.683503-18.96698 4.613064-11.025101 2.266623-23.644513-6.123464-32.933063l-0.422625-0.467651-33.895995-31.839149c40.22719-44.532239 120.999818-83.800591 202.830545-98.523921L453.311343 375.738849l-85.116563 0c-25.325805 0-45.929052 20.603247-45.929052 45.929052l0 44.060495c0 25.325805 20.603247 45.929052 45.929052 45.929052l85.041862 0-0.281409 58.759265c-18.313088 11.663644-33.853016 25.575492-45.266973 40.582277-16.1007 21.169135-24.264637 44.311205-24.264637 68.783573 0 75.909877 61.757552 137.667429 137.666406 137.667429 75.9109 0 137.667429-61.757552 137.667429-137.667429 0-24.514323-8.089235-47.926546-24.044626-69.585845-11.610432-15.760962-27.15343-30.058596-45.287439-41.714054l0-56.82624 84.561931 0c25.324782 0 45.929052-20.603247 45.929052-45.929052l0-43.617403c0-25.325805-20.60427-45.929052-45.929052-45.929052L589.428464 376.180917l0-310.112943c80.068593 14.674211 160.04202 54.750975 200.476941 100.474342l-36.507472 38.526455c-8.390088 9.287527-10.736529 21.906939-6.123464 32.934087 4.749164 11.353582 15.669888 18.750039 27.929096 18.972097l158.223604 10.045797 0.487094 0c17.181311 0 30.638811-13.458523 30.638811-30.638811l-0.048095-1.215688-12.346189-155.303089c-0.289596-12.06171-7.865131-23.170722-19.033495-27.798113l-1.050935-0.435928-1.104147-0.276293c-2.384303-0.595564-5.647627-1.411139-9.442046-1.411139-7.617491 0-14.870686 2.769067-20.976754 8.006348l-0.811482 0.695848-33.186843 37.632085c-38.340213-42.744523-83.105766-76.733639-133.291772-101.175307C672.561859-34.460604 604.90597-49.44897 532.174482-49.44897zM175.674045 136.970814l10.923794-13.150508c73.048713-87.940888 205.466582-142.570089 345.576643-142.570089 164.774811 0 266.298042 80.58127 322.449923 148.181901l11.45796 13.794168 55.020104-62.390979c0.163729-0.098237 0.286526-0.151449 0.36225-0.176009 0.002047 0 0.00307 0 0.004093 0l0.047072 1.13894 12.281721 154.48649-157.540036-10.002818-0.487094 0c-0.011256-0.002047-0.025583-0.00921-0.044002-0.019443 0.074701-0.135076 0.193405-0.315178 0.373507-0.524956l54.232159-57.224306-7.703449-10.353812c-44.709271-60.090587-146.06468-111.614054-246.477624-125.294634l-17.421788-2.37407L558.729278 406.881127l115.261117 0c8.255011 0 15.229866 6.973832 15.229866 15.229866l0 43.617403c0 8.255011-6.973832 15.229866-15.229866 15.229866L558.729278 480.958262l0 104.980983 7.655354 4.433986c38.619576 22.37152 61.675688 55.794747 61.675688 89.409332 0 58.982346-47.985898 106.968244-106.968244 106.968244-58.982346 0-106.96722-47.985898-106.96722-106.968244 0-44.904723 38.741349-74.05053 61.8343-87.428212l7.613398-4.41045 0.512676-106.986663-115.889427 0c-8.255011 0-15.229866-6.973832-15.229866-15.229866l0-44.060495c0-8.255011 6.973832-15.229866 15.229866-15.229866l115.815749 0 0-371.737466-17.421788 2.37407c-103.013165 14.035668-205.569936 64.98199-249.40121 123.890658l-8.169053 10.980076 53.253878 50.0233c0.084934 0.11461 0.149403 0.216941 0.195451 0.300852-0.021489 0.01228-0.042979 0.020466-0.060375 0.022513l-0.696872 0-0.677429 0.062422-152.615886 13.891382 14.901385-152.309918 0-0.672312c0.016373-0.00307 0.032746-0.005117 0.047072-0.008186 0.083911 0.01228 0.182149 0.033769 0.267083 0.059352L175.674045 136.970814zM521.093099 606.793202c-0.185218 0-0.36225 0.00307-0.534166 0.008186-0.170892-0.005117-0.348947-0.008186-0.533143-0.008186-4.993734 0-10.111289 0.552585-15.211447 1.641383-40.250726 7.759731-69.446675 43.091424-69.446675 84.086094 0 47.270607 38.45687 85.727477 85.726453 85.727477 47.270607 0 85.727477-38.45687 85.727477-85.727477C606.820576 645.250072 568.363705 606.793202 521.093099 606.793202zM520.552793 637.547647l0.209778-0.00307c0.379647-0.005117 0.730641-0.022513 1.046842-0.047072 30.014594 0.384763 54.310953 24.919553 54.310953 55.023174 0 30.342052-24.685215 55.028291-55.028291 55.028291-30.342052 0-55.027268-24.686239-55.027268-55.028291 0-26.338878 18.789948-49.034786 44.679595-53.965076l0.367367-0.074701c2.791579-0.602727 5.550413-0.932232 8.213056-0.981351 0.309038 0.023536 0.649799 0.040932 1.017166 0.045025L520.552793 637.547647z"  horiz-adv-x="1024" />

    
    <glyph glyph-name="edit" unicode="&#58892;" d="M1014.642 745.228c-7.923-28.292-14.956-54.581-34.507-70.42-171.054-138.593-308.162-310.68-463.298-464.871-4.074-4.061-8.949-7.641-11.991-12.379-65.929-102.828-181.262-115.945-282.196-154.651-21.67-8.3-55.57 30.316-49.069 53.263 18.317 64.627 36.254 129.378 55.954 193.592 3.332 10.863 13.737 20.27 22.483 28.673 147.544 141.694 295.884 282.56 442.692 425.014 35.012 33.975 65.363 72.802 97.388 109.813 43.243 49.963 103.691 53.987 150.811 7.654 28.364-27.89 62.838-52.147 69.349-96.114 0.846-5.7 1.756-11.387 2.64-17.076 2.149-1.29-2.409-1.207-0.257-2.497v0zM746.265 697.966c-143.031-143.31-285.798-286.353-425.513-426.335 24.065-24.382 50.698-51.374 73.962-74.938 142.838 139.748 286.956 280.736 430.361 421.026-29.209 29.747-55.809 56.826-78.809 80.248v0zM780.431 758.532c35.534-34.035 66.499-63.695 103.078-98.73 6.533 8.912 12.87 19.914 21.406 28.782 61.69 64.018 61.828 63.88-3.146 125.401-1.389 1.318-2.658 2.784-4.08 4.063-17.97 16.119-36.193 16.301-53.943 0.005-20.473-18.801-40.525-38.055-63.316-59.521v0zM250.913 120.218c32.921 13.26 58.889 23.713 81.104 32.654-17.064 20.07-32.667 38.427-51.038 60.045-10.237-31.532-18.925-58.35-30.067-92.699v0zM457.325-114.618c-95.18 0-190.363-0.146-285.55 0.065-52.12 0.109-98.169 14.202-133.136 56.247-23.055 27.724-29.593 59.946-29.642 94.142-0.291 189.403-1.034 378.814 0.219 568.217 0.664 101.677 63.442 162.274 165.278 162.868 102.874 0.599 205.757 0.022 308.627 0.226 22.538 0.043 44.021-1.736 46.9-30.199 2.109-20.825-14.922-31.334-48.338-31.361-99.987-0.084-199.985 0.147-299.974-0.094-71.519-0.181-112.147-41.233-112.165-112.856-0.072-182.666-0.089-365.333-0.043-547.999 0.01-56.514 38.085-96.863 95.137-97.074 195.173-0.735 390.353-0.596 585.525-0.129 46.174 0.104 76.086 33.055 76.29 83.051 0.51 124.969 0.241 249.947 0.433 374.927 0.017 9.542-2.207 21.578 2.57 28.067 8.038 10.926 21.765 26.173 31.426 25.058 10.109-1.164 19.003-18.963 26.809-30.577 2.697-4.002 0.62-11.255 0.62-17.019 0.011-124.028 0.17-248.059-0.049-372.085-0.182-104.429-49.419-153.352-154.028-153.468-92.305-0.096-184.61-0.022-276.91-0.011v0zM457.325-114.618z"  horiz-adv-x="1024" />

    
    <glyph glyph-name="arrow-down-right" unicode="&#59356;" d="M725.333333 640a42.666667 42.666667 0 0 1-42.666666-42.666667v-323.84l-353.706667 354.133334a42.666667 42.666667 0 0 1-60.586667-60.586667l354.133334-353.706667H298.666667a42.666667 42.666667 0 0 1 0-85.333333h426.666666a42.666667 42.666667 0 0 1 16.213334 3.413333 42.666667 42.666667 0 0 1 23.04 23.04A42.666667 42.666667 0 0 1 768 170.666667V597.333333a42.666667 42.666667 0 0 1-42.666667 42.666667z"  horiz-adv-x="1024" />

    
    <glyph glyph-name="zhuti" unicode="&#59010;" d="M419.182 749.737h-254.38c-12.108 0-21.924-9.815-21.924-21.923v-254.382c0-36.577 29.759-66.333 66.335-66.333h254.38c12.108 0 21.923 9.815 21.923 21.923V683.404c0 36.576-29.757 66.333-66.334 66.333z m22.488-298.793H209.213c-12.4 0-22.488 10.088-22.488 22.487V705.89h232.46c12.397 0 22.486-10.088 22.486-22.487v-232.46zM855.797 671.072c-12.108 0-21.922-9.815-21.922-21.923v-175.717c0-12.4-10.09-22.487-22.49-22.487H578.928V683.403c0 12.399 10.087 22.487 22.488 22.487h174.346c12.108 0 21.922 9.815 21.922 21.923 0 12.108-9.815 21.923-21.922 21.923H601.415c-36.577 0-66.333-29.757-66.333-66.334V429.02c0-12.108 9.815-21.923 21.922-21.923h254.38c36.579 0 66.335 29.757 66.335 66.333V649.148c0 12.11-9.814 21.924-21.922 21.924zM811.033 357.497H556.651c-12.108 0-21.922-9.815-21.922-21.923v-254.382c0-36.576 29.757-66.333 66.335-66.333h254.38c12.108 0 21.923 9.815 21.923 21.923V291.164c0 36.576-29.757 66.333-66.334 66.333z m22.487-298.791H601.064c-12.4 0-22.49 10.088-22.49 22.486V313.651h232.46c12.398 0 22.485-10.088 22.485-22.487v-232.458zM463.593 357.497h-254.38c-36.577 0-66.335-29.757-66.335-66.334v-254.381c0-12.109 9.817-21.923 21.924-21.923h254.382c36.575 0 66.332 29.757 66.332 66.333V335.574c0 12.108-9.815 21.923-21.923 21.923zM441.67 81.192c0-12.4-10.089-22.486-22.486-22.486h-232.46V291.164c0 12.399 10.089 22.487 22.488 22.487H441.67v-232.459zM855.797 702.487c13.965 0 25.326 11.361 25.326 25.327 0 13.965-11.361 25.327-25.326 25.327s-25.328-11.362-25.328-25.327c0-13.965 11.363-25.327 25.328-25.327z"  horiz-adv-x="1025" />

    
    <glyph glyph-name="setting" unicode="&#59119;" d="M400.896 634.843429l20.041143 100.205714A18.285714 18.285714 0 0 0 438.857143 749.714286h146.285714a18.285714 18.285714 0 0 0 17.92-14.701715l20.041143-100.169142c17.846857-7.899429 34.779429-17.700571 50.541714-29.220572l96.804572 32.768a18.285714 18.285714 0 0 0 21.686857-8.192l73.142857-126.683428a18.285714 18.285714 0 0 0-3.766857-22.893715l-76.763429-67.474285a277.211429 277.211429 0 0 0 0-58.294858l76.8-67.474285a18.285714 18.285714 0 0 0 3.730286-22.893715l-73.142857-126.683428a18.285714 18.285714 0 0 0-21.686857-8.192l-96.804572 32.768c-15.762286-11.52-32.694857-21.321143-50.541714-29.220572l-20.041143-100.205714A18.285714 18.285714 0 0 0 585.142857 18.285714h-146.285714a18.285714 18.285714 0 0 0-17.92 14.701715l-20.041143 100.169142a273.993143 273.993143 0 0 0-50.541714 29.220572l-96.804572-32.768a18.285714 18.285714 0 0 0-21.686857 8.192l-73.142857 126.683428a18.285714 18.285714 0 0 0 3.766857 22.893715l76.763429 67.474285a277.211429 277.211429 0 0 0 0 58.294858l-76.8 67.474285a18.285714 18.285714 0 0 0-3.730286 22.893715l73.142857 126.683428a18.285714 18.285714 0 0 0 21.686857 8.192l96.804572-32.768c15.762286 11.52 32.694857 21.321143 50.541714 29.220572zM603.428571 384a91.428571 91.428571 0 1 1-182.857142 0 91.428571 91.428571 0 0 1 182.857142 0z m36.571429 0a128 128 0 1 0-256 0 128 128 0 0 0 256 0z m-205.165714 234.166857a18.285714 18.285714 0 0 0-11.117715-13.385143 237.421714 237.421714 0 0 1-58.697142-33.938285 18.285714 18.285714 0 0 0-17.188572-2.962286l-91.794286 31.085714-58.148571-100.754286 72.777143-63.963428a18.285714 18.285714 0 0 0 6.034286-16.310857 239.908571 239.908571 0 0 1 0-67.876572 18.285714 18.285714 0 0 0-6.034286-16.310857l-72.777143-63.963428L256 169.069714l91.794286 31.085715a18.285714 18.285714 0 0 0 17.188571-2.998858 237.421714 237.421714 0 0 1 58.697143-33.938285 18.285714 18.285714 0 0 0 11.154286-13.385143L453.851429 54.857143h116.297142l19.017143 94.976a18.285714 18.285714 0 0 0 11.117715 13.385143 237.421714 237.421714 0 0 1 58.697142 33.938285 18.285714 18.285714 0 0 0 17.188572 2.962286l91.794286-31.085714 58.148571 100.754286-72.777143 63.963428a18.285714 18.285714 0 0 0-6.034286 16.310857 239.908571 239.908571 0 0 1 0 67.876572 18.285714 18.285714 0 0 0 6.034286 16.310857l72.777143 63.963428L768 598.930286l-91.794286-31.085715a18.285714 18.285714 0 0 0-17.188571 2.998858 237.421714 237.421714 0 0 1-58.697143 33.938285 18.285714 18.285714 0 0 0-11.154286 13.385143L570.148571 713.142857h-116.297142l-19.017143-94.976z"  horiz-adv-x="1024" />

    
    <glyph glyph-name="cc-copy" unicode="&#58932;" d="M515.782 555.658l0-96.939 86.572 0-86.572 96.939zM614.883-14.001c6.274 6.275 10.251 14.826 10.251 24.519l0 396.306-115.057 0c-12.53 0-23.921 5.135-32.464 13.688l0 0c-7.974 8.553-13.11 19.963-13.11 32.493l0 115.202-235.819 0c-9.681 0-18.225-3.997-24.491-10.253l0 0c-6.265-6.294-9.692-14.827-9.692-24.519l0-522.917c0-9.694 3.427-18.245 9.692-24.519 6.266-6.276 14.808-10.271 24.491-10.271l0 0 361.718 0c9.672 0 18.225 3.995 24.481 10.271l0 0zM167.733 594.444c15.947 15.387 37.599 25.079 60.951 25.079l304.185 0 1.699-1.719 140.707-161.364 1.138-1.139 0-444.783c0-23.96-9.692-45.622-25.059-61.03l0 0c-15.387-15.385-37.03-25.078-60.951-25.078l-361.718 0c-23.351 0-45.003 9.693-60.951 25.078-15.377 15.408-25.06 37.07-25.06 61.03l0 522.917c0 23.941 9.683 45.024 25.06 61.01l0 0zM716.859 756.967l0-96.957 86.571 0-86.571 96.957zM429.761 820.833l304.185 0 1.699-2.279 140.707-160.824 1.139-1.7 0-444.225c0-23.959-9.692-45.62-25.061-61.007-15.967-15.967-37.03-25.098-60.951-25.098l0 0-60.391-0.561c-6.834 0-13.668 3.418-18.226 7.975l0 0c-4.556 4.556-7.393 10.83-7.393 18.244l0 0c0 6.854 2.837 13.689 7.393 18.246l0 0c4.557 4.575 11.392 7.413 18.226 7.413l0 0 60.391 0c9.672 0 18.226 3.996 24.481 10.271 6.275 6.276 10.254 14.828 10.254 24.518l0 396.308-115.048 0c-12.55 0-23.941 5.135-32.474 13.707-8.553 7.974-13.668 19.944-13.668 32.493l0 114.624-235.261 0c-9.682 0-18.226-3.437-24.491-9.692-6.275-6.294-10.261-14.828-10.261-24.519l0-60.468c0-7.414-2.848-13.669-7.405-18.226-4.557-4.575-10.821-7.414-18.226-7.414l0 0c-6.835 0-13.668 2.839-18.225 7.414-4.556 4.557-7.404 11.39-7.404 18.226l0 60.468c0 23.361 9.683 45.043 25.059 61.01l0 0c15.948 15.406 37.031 25.098 60.952 25.098l0 0z"  horiz-adv-x="1024" />

    
    <glyph glyph-name="leveldown" unicode="&#59137;" d="M237.5838 749.658112l402.259968 0q7.428096 0 12.85632-5.428224t5.428224-13.427712l0-493.111296 109.707264 0q22.85568 0 33.140736-21.141504t-5.142528-39.426048l-182.84544-219.414528q-10.285056-12.570624-27.998208-12.570624t-27.998208 12.570624l-182.84544 219.414528q-14.856192 17.713152-5.142528 39.426048 10.285056 21.141504 33.140736 21.141504l109.707264 0 0 365.69088-182.84544 0q-7.999488 0-14.2848 6.285312l-91.42272 109.707264q-7.428096 7.999488-2.285568 19.427328 5.142528 10.856448 16.570368 10.856448z"  horiz-adv-x="1024" />

    
    <glyph glyph-name="rename" unicode="&#59347;" d="M544 128l-384 0C142.336 128 128 142.336 128 160l0 384C128 561.664 142.336 576 160 576l384 0C561.664 576 576 561.664 576 544S561.664 512 544 512L192 512l0-320 352 0C561.664 192 576 177.664 576 160S561.664 128 544 128zM288 384C270.336 384 256 369.664 256 352S270.336 320 288 320l192 0C497.664 320 512 334.336 512 352S497.664 384 480 384L288 384zM800 0 704 0 704 704l96 0C817.664 704 832 718.336 832 736S817.664 768 800 768l-256 0C526.336 768 512 753.664 512 736S526.336 704 544 704L640 704l0-704L544 0C526.336 0 512-14.336 512-32S526.336-64 544-64l256 0c17.664 0 32 14.336 32 32S817.664 0 800 0zM864 576l-64 0C782.336 576 768 561.664 768 544S782.336 512 800 512L832 512l0-320-32 0c-17.664 0-32-14.336-32-32s14.336-32 32-32l64 0c17.664 0 32 14.336 32 32l0 384C896 561.664 881.664 576 864 576z"  horiz-adv-x="1024" />

    
    <glyph glyph-name="ico-hidden" unicode="&#58975;" d="M183.424 238.922l163.5 98.484c-4.233 14.909-6.646 30.586-6.646 46.852 0 94.665 76.74 171.405 171.405 171.405 45.983 0 87.641-18.209 118.425-47.68l129.791 78.18c-73.254 41.731-157.866 65.813-248.216 65.813-192.743 0-360.069-108.505-444.454-267.715 29.409-55.489 69.073-104.616 116.195-145.338zM841.254 528.448l-164.383-99.015c3.935-14.415 6.216-29.513 6.216-45.175 0-94.665-76.74-171.405-171.405-171.405-45.361 0-86.485 17.747-117.143 46.515l-129.42-77.955c72.875-41.149 156.893-64.871 246.564-64.871 192.743 0 360.069 108.505 444.454 267.717-29.136 54.968-68.342 103.687-114.882 144.189zM420.28 384.259c0-0.551 0.152-1.060 0.162-1.609l135.081 81.366c-13.066 7.199-27.854 11.659-43.826 11.659-50.487-0-91.416-40.929-91.416-91.416zM447.739 319.053l500.625 301.552c10.812 6.512 14.298 20.558 7.785 31.369-6.512 10.812-20.556 14.297-31.368 7.785l-849.753-511.85c-10.812-6.512-14.298-20.556-7.785-31.368 6.512-10.812 20.556-14.298 31.369-7.785l349.128 210.297zM511.696 292.843c50.488 0 91.416 40.928 91.416 91.416 0 0.55-0.152 1.057-0.162 1.606l-135.079-81.364c13.065-7.2 27.853-11.658 43.825-11.658z"  horiz-adv-x="1024" />

    
    <glyph glyph-name="level-up" unicode="&#59083;" d="M801.082514 551.424A36.425143 36.425143 0 0 0 767.9488 530.285714h-109.714286v-493.714285c0-10.276571-8.009143-18.285714-18.285714-18.285715H237.663086a18.395429 18.395429 0 0 0-16.566857 10.276572 19.346286 19.346286 0 0 0 2.304 20.004571l91.428571 109.714286A19.565714 19.565714 0 0 0 329.128229 164.571429h182.857142V530.285714h-109.714285a36.352 36.352 0 0 0-33.133715 21.138286 37.046857 37.046857 0 0 0 5.156572 38.838857l182.857143 219.428572c13.714286 16.566857 42.276571 16.566857 55.990857 0l182.857143-219.428572c9.142857-10.861714 11.446857-26.294857 5.156571-38.838857z"  horiz-adv-x="1024" />

    
    <glyph glyph-name="menu" unicode="&#58905;" d="M852.11 276A108 108 0 1 0 960 384a107.94 107.94 0 0 0-107.89-108ZM512 276a108 108 0 1 0 107.89 108A107.95 107.95 0 0 0 512 276ZM171.89 276a108 108 0 1 0 107.88 108 107.94 107.94 0 0 0-107.88-108Z"  horiz-adv-x="1024" />

    
    <glyph glyph-name="page" unicode="&#58922;" d="M809.021787-20.341025l-590.652338 0c-48.40443 0-87.799672 39.395242-87.799672 87.799672l0 654.506644c0 48.40443 39.395242 87.799672 87.799672 87.799672l590.652338 0c48.40443 0 87.799672-39.395242 87.799672-87.799672l0-654.506644C896.821459 19.054217 857.426217-20.341025 809.021787-20.341025zM218.36945 761.874233c-22.01234 0-39.908942-17.896602-39.908942-39.908942l0-654.506644c0-22.01234 17.896602-39.908942 39.908942-39.908942l590.652338 0c22.01234 0 39.908942 17.896602 39.908942 39.908942l0 654.506644c0 22.01234-17.896602 39.908942-39.908942 39.908942L218.36945 761.874233zM322.132698 187.185472l383.125841 0 0-31.927153-383.125841 0 0 31.927153ZM322.132698 506.457006l383.125841 0 0-31.927153-383.125841 0 0 31.927153ZM322.132698 650.129196l383.125841 0 0-31.927153-383.125841 0 0 31.927153ZM322.132698 346.821239l383.125841 0 0-31.927153-383.125841 0 0 31.927153Z"  horiz-adv-x="1024" />

    
    <glyph glyph-name="link" unicode="&#58974;" d="M546.9184 230.5024c-48.2816 0-96.5632 18.3808-133.3248 55.1424-9.984 9.984-9.984 26.2144 0 36.1984s26.2144 9.984 36.1984 0c53.5552-53.5552 140.6464-53.5552 194.2016 0l186.1632 186.1632c53.5552 53.5552 53.5552 140.6464 0 194.2016s-140.6464 53.5552-194.2016 0l-157.0816-157.0816c-9.984-9.984-26.2144-9.984-36.1984 0s-9.984 26.2144 0 36.1984l157.0816 157.0816c73.5232 73.5232 193.1264 73.5232 266.5984 0s73.5232-193.1264 0-266.5984l-186.1632-186.1632c-36.7616-36.7616-85.0432-55.1424-133.3248-55.1424zM239.7184-76.6976c-48.2816 0-96.5632 18.3808-133.3248 55.1424-73.5232 73.5232-73.5232 193.1264 0 266.5984l186.1632 186.1632c73.5232 73.5232 193.1264 73.5232 266.5984 0 9.984-9.984 9.984-26.2144 0-36.1984s-26.2144-9.984-36.1984 0c-53.5552 53.5552-140.6464 53.5552-194.2016 0l-186.1632-186.1632c-53.5552-53.5552-53.5552-140.6464 0-194.2016s140.6464-53.5552 194.2016 0l157.0816 157.0816c9.984 9.984 26.2144 9.984 36.1984 0s9.984-26.2144 0-36.1984l-157.0816-157.0816c-36.7616-36.7616-85.0432-55.1424-133.3248-55.1424z"  horiz-adv-x="1024" />

    
    <glyph glyph-name="folder" unicode="&#58912;" d="M864-32h-723.2c-57.6 0-89.6 44.8-89.6 96v633.6c0 57.6 38.4 102.4 89.6 102.4h268.8c12.8 0 25.6-6.4 25.6-19.2l32-121.6h396.8c57.6 0 108.8-44.8 108.8-102.4v-492.8c0-51.2-51.2-96-108.8-96z m-723.2 774.4c-25.6 0-32-19.2-32-44.8v-633.6c0-25.6 12.8-38.4 32-38.4h723.2c25.6 0 51.2 19.2 51.2 38.4v492.8c0 25.6-25.6 44.8-51.2 44.8h-422.4c-12.8 0-25.6 6.4-25.6 19.2l-32 121.6h-243.2zM812.8 70.4h-147.2c-6.4 0-12.8 6.4-12.8 12.8s6.4 12.8 12.8 12.8h147.2c12.8 0 32 0 32 32v51.2c0 6.4 6.4 12.8 12.8 12.8s12.8-6.4 12.8-12.8v-51.2c0-38.4-25.6-57.6-57.6-57.6zM851.2 230.4c-6.4 0-6.4 0-12.8 6.4 0 0-6.4 6.4-6.4 12.8s0 6.4 6.4 12.8 12.8 6.4 19.2 0c0 0 6.4-6.4 6.4-12.8s0-6.4-6.4-12.8c0 0 0-6.4-6.4-6.4zM896 716.8h-358.4c-12.8 0-32 12.8-32 25.6s12.8 25.6 32 25.6h358.4c12.8 0 25.6-12.8 25.6-25.6s-12.8-25.6-25.6-25.6z"  horiz-adv-x="1024" />

    
    <glyph glyph-name="home" unicode="&#58906;" d="M931.148 444.75L591.505 798.346c-21.106 21.953-49.313 34.034-79.551 34.034-30.235 0-58.448-12.081-79.554-34.034L92.76 444.75c-35.049-36.498-30.536-68.044-24.742-81.222 4.13-9.35 18.07-35.05 58.231-35.05h49.78v-272.016c0-61.756 44.342-119.906 107.357-119.906h144.587v287.87c0 30.866-4.675 48.062 26.848 48.062h114.268c31.52 0 26.845-17.196 26.845-48.061v-287.872h144.588c63.013 0 107.358 58.15 107.358 119.906V328.477h49.782c40.16 0 54.1 25.7 58.229 35.05 5.793 13.18 10.306 44.726-24.743 81.224z m-33.486-60.28h-105.77v-328.007c0-30.865-19.877-63.917-51.37-63.917h-88.6V224.428c0 61.761-19.79 104.05-82.832 104.05H454.821c-63.045 0-82.836-42.289-82.836-104.05v-231.883h-88.599c-31.495 0-51.37 33.052-51.37 63.917V384.471H126.25c-0.984 0-1.888 3.852-2.708 3.907 1.94 3.388 5.276 11.975 10.825 17.743l339.671 353.35c10.142 10.578 24.467 17.057 38.353 16.924 13.888 0.133 27.342-6.346 37.483-16.923L889.54 406.12c5.549-5.768 8.885-14.355 10.825-17.743-0.818-0.055-1.72-3.907-2.704-3.907z"  horiz-adv-x="1024" />

    
    <glyph glyph-name="drag_and_drop" unicode="&#59120;" d="M393.846154 817.230769c43.323077 0 78.769231-35.446154 78.769231-78.769231s-35.446154-78.769231-78.769231-78.76923-78.769231 35.446154-78.769231 78.76923 35.446154 78.769231 78.769231 78.769231z m236.307692 0c43.323077 0 78.769231-35.446154 78.769231-78.769231s-35.446154-78.769231-78.769231-78.76923-78.769231 35.446154-78.769231 78.76923 35.446154 78.769231 78.769231 78.769231zM393.846154 580.923077c43.323077 0 78.769231-35.446154 78.769231-78.769231s-35.446154-78.769231-78.769231-78.769231-78.769231 35.446154-78.769231 78.769231 35.446154 78.769231 78.769231 78.769231z m236.307692 0c43.323077 0 78.769231-35.446154 78.769231-78.769231s-35.446154-78.769231-78.769231-78.769231-78.769231 35.446154-78.769231 78.769231 35.446154 78.769231 78.769231 78.769231zM393.846154 344.615385c43.323077 0 78.769231-35.446154 78.769231-78.769231s-35.446154-78.769231-78.769231-78.769231-78.769231 35.446154-78.769231 78.769231 35.446154 78.769231 78.769231 78.769231z m236.307692 0c43.323077 0 78.769231-35.446154 78.769231-78.769231s-35.446154-78.769231-78.769231-78.769231-78.769231 35.446154-78.769231 78.769231 35.446154 78.769231 78.769231 78.769231zM393.846154 108.307692c43.323077 0 78.769231-35.446154 78.769231-78.76923s-35.446154-78.769231-78.769231-78.769231-78.769231 35.446154-78.769231 78.769231 35.446154 78.769231 78.769231 78.76923z m236.307692 0c43.323077 0 78.769231-35.446154 78.769231-78.76923s-35.446154-78.769231-78.769231-78.769231-78.769231 35.446154-78.769231 78.769231 35.446154 78.769231 78.769231 78.76923z"  horiz-adv-x="1024" />

    
    <glyph glyph-name="add1" unicode="&#58958;" d="M876.089 456.818h-291.271v291.271c0 40.268-32.549 72.818-72.818 72.818s-72.818-32.549-72.818-72.818v-291.271h-291.271c-40.268 0-72.818-32.549-72.818-72.818s32.549-72.818 72.818-72.818h291.271v-291.271c0-40.268 32.549-72.818 72.818-72.818s72.818 32.549 72.818 72.818v291.271h291.271c40.268 0 72.818 32.549 72.818 72.818s-32.549 72.818-72.818 72.818z"  horiz-adv-x="1024" />

    
    <glyph glyph-name="layout" unicode="&#59001;" d="M779.95324 830.688505 243.998665 830.688505c-98.623181 0-178.709171-79.953983-178.709171-178.709171l0-535.956621c0-98.623181 80.08599-178.709171 178.709171-178.709171l535.954575 0c98.755188 0 178.75522 80.08599 178.75522 178.709171L958.70846 651.979334C958.70846 750.734522 878.708428 830.688505 779.95324 830.688505zM378.042567 26.689105l-89.419566 0c-73.979922 0-133.912919 59.977-133.912919 133.956921L154.710083 428.646849l223.332485 0L378.042567 26.689105zM869.286848 160.646026c0-73.979922-59.932997-133.956921-133.954875-133.956921L467.331149 26.689105 467.331149 428.646849l401.955698 0L869.286848 160.646026zM869.286848 518.066415 154.710083 518.066415l0 89.289606c0 73.979922 59.932997 134.042879 133.912919 134.042879l446.708971 0c74.021877 0 133.954875-60.062957 133.954875-134.042879L869.286848 518.066415z"  horiz-adv-x="1024" />

    
    <glyph glyph-name="content" unicode="&#58969;" d="M268.299629 708.848553l-22.103414-59.044768-59.044768 0 47.993061-36.941354-22.103414-66.514903 55.360865 40.625256 55.360865-40.625256-22.103414 66.514903 47.993061 36.941354-59.044768 0L268.299629 708.848553zM268.299629 465.199347l-22.103414-59.044768-59.044768 0 47.993061-36.941354-22.103414-66.514903 55.360865 40.625256 55.360865-40.625256-22.103414 66.514903 47.993061 36.941354-59.044768 0L268.299629 465.199347zM290.505373 162.505373l-22.103414 59.044768-22.103414-59.044768-59.044768 0 47.993061-36.941354-22.103414-66.412572 55.360865 40.625256 55.360865-40.625256-22.103414 66.412572 47.993061 36.941354L290.505373 162.505373zM877.473809 830.724321l-730.947618 0c-44.820811 0-81.250512-36.32737-81.250512-81.250512l0-730.947618c0-44.923142 36.32737-81.250512 81.250512-81.250512l730.947618 0c44.820811 0 81.250512 36.32737 81.250512 81.250512l0 730.947618C958.724321 794.29462 922.29462 830.724321 877.473809 830.724321M918.099065 18.526191c0-22.410406-18.21485-40.625256-40.625256-40.625256l-730.947618 0c-22.410406 0-40.625256 18.21485-40.625256 40.625256l0 730.947618c0 22.410406 18.11252 40.625256 40.625256 40.625256l730.947618 0c22.410406 0 40.625256-18.21485 40.625256-40.625256L918.099065 18.526191 918.099065 18.526191zM816.58709 647.859503l-365.524974 0c-11.256368 0-20.261463-9.107425-20.261463-20.261463 0-11.256368 9.107425-20.261463 20.261463-20.261463l365.524974 0c11.256368 0 20.261463 9.107425 20.261463 20.261463C836.848553 638.854409 827.741128 647.859503 816.58709 647.859503M816.58709 160.663422l-365.524974 0c-11.256368 0-20.261463-9.107425-20.261463-20.363793s9.107425-20.261463 20.261463-20.261463l365.524974 0c11.256368 0 20.261463 9.107425 20.261463 20.261463C836.848553 151.555997 827.741128 160.663422 816.58709 160.663422M816.58709 404.210297l-365.524974 0c-11.256368 0-20.261463-9.107425-20.261463-20.261463 0-11.256368 9.107425-20.261463 20.261463-20.261463l365.524974 0c11.256368 0 20.261463 9.107425 20.261463 20.261463C836.848553 395.205203 827.741128 404.210297 816.58709 404.210297"  horiz-adv-x="1024" />

    
    <glyph glyph-name="chevron-down" unicode="&#59197;" d="M695.168 499.498667L512 316.33066699999995 328.832 499.498667l-60.330667-60.330667L512 195.66933300000005l243.498667 243.498667z"  horiz-adv-x="1024" />

    
    <glyph glyph-name="empty" unicode="&#59046;" d="M855.6 468.8H168.5c-12.7 0-24.4-6.9-30.6-18L4.4 211.3C1.5 206.1 0 200.2 0 194.2v-287.1c0-19.4 15.7-35.1 35.1-35.1H989c19.4 0 35.1 15.7 35.1 35.1V194.2c0 6-1.5 11.8-4.4 17.1L886.2 450.8c-6.2 11.1-17.9 18-30.6 18zM673.4 200.4c-16.5 0-30.8-11.5-34.3-27.7-12.7-58.5-64.8-102.3-127.2-102.3s-114.5 43.8-127.2 102.3c-3.5 16.1-17.8 27.7-34.3 27.7H119c-26.4 0-43.3 28-31.1 51.4l81.7 155.8c6.1 11.6 18 18.8 31.1 18.8h622.4c13 0 25-7.2 31.1-18.8l81.7-155.8c12.2-23.4-4.7-51.4-31.1-51.4H673.4zM819.9 686.5c-1 1.8-2.1 3.7-3.2 5.5-9.8 16.6-31.1 22.2-47.8 12.6L648.5 635c-17-9.8-22.7-31.6-12.6-48.4 0.9-1.4 1.7-2.9 2.5-4.4 9.5-17 31.2-22.8 48-13L807 638.7c16.7 9.7 22.4 31 12.9 47.8zM375.4 634.9L255 704.4c-16.7 9.6-38 4-47.8-12.6-1.1-1.8-2.1-3.6-3.2-5.5-9.5-16.8-3.8-38.1 12.9-47.8L337.3 569c16.9-9.7 38.6-4 48 13.1 0.8 1.5 1.7 2.9 2.5 4.4 10.2 16.8 4.5 38.6-12.4 48.4zM512 656.7h2.5c19.5-0.3 35.5 15.5 35.5 35.1v139c0 19.3-15.6 34.9-34.8 35.1h-6.4C489.6 865.7 474 850 474 830.8v-139c0-19.5 15.9-35.4 35.5-35.1h2.5z"  horiz-adv-x="1024" />

    
    <glyph glyph-name="phone" unicode="&#59817;" d="M682.939719-31.142022 341.058235-31.142022c-67.432809 0-122.099872 54.667064-122.099872 122.100896L218.958362 677.041126c0 67.432809 54.667064 122.099872 122.099872 122.099872l341.881484 0c67.434855 0 122.100896-54.667064 122.100896-122.099872l0-586.081229C805.040614 23.525042 750.374574-31.142022 682.939719-31.142022zM772.480035 685.181527c0 44.952818-36.446074 81.399915-81.398892 81.399915L332.918857 766.581442c-44.953841 0-81.400938-36.447097-81.400938-81.399915l0 0L772.480035 685.181527 772.480035 685.181527zM772.480035 652.62197 251.517919 652.62197l0-480.262158 520.962116 0L772.480035 652.62197zM772.480035 139.799232 251.517919 139.799232l0-56.981782c0-44.952818 36.447097-81.398892 81.400938-81.398892l358.162286 0c44.952818 0 81.398892 36.446074 81.398892 81.398892L772.480035 139.799232zM601.540827 74.679096 430.59855 74.679096c-8.989745 0-16.279778 7.290033-16.279778 16.280802 0 8.989745 7.290033 16.279778 16.279778 16.279778l170.942277 0c8.989745 0 16.279778-7.290033 16.279778-16.279778C617.820606 81.969129 610.530572 74.679096 601.540827 74.679096z"  horiz-adv-x="1024" />

    
    <glyph glyph-name="pc" unicode="&#58883;" d="M919.565463 774.057717 104.433514 774.057717c-22.036899 0-40.066531-18.029632-40.066531-40.066531L64.366983 213.062839c0-22.036899 18.029632-40.066531 40.066531-40.066531l345.360725 0-10.544147-107.886149L250.5248 65.110159l-10.544147-71.167876 544.03767 0-11.598152 71.167876L584.748884 65.110159l-10.544147 107.886149 345.360725 0c22.036899 0 40.066531 18.029632 40.066531 40.066531L959.631994 733.991186C959.633017 756.028085 941.602362 774.057717 919.565463 774.057717zM935.467641 236.265284 88.531336 236.265284 88.531336 717.886393l846.936305 0L935.467641 236.265284z"  horiz-adv-x="1024" />

    
    <glyph glyph-name="del" unicode="&#58886;" d="M906.055 721.732h-219.375c-9.079 113.471-86.236 130.114-161.884 130.114s-152.805-16.639-161.884-130.114h-219.375c-27.236 0-49.923-22.697-49.923-49.923v-37.826c0-30.26 19.668-55.98 46.9-65.053l39.335-553.738c0-63.545 55.98-116.495 124.061-116.495h450.857c68.082 0 124.061 52.955 124.061 116.495l28.743 553.738c27.236 9.079 46.9 34.8 46.9 65.053v37.826c1.516 27.236-19.668 49.923-48.414 49.923zM526.303 806.461c71.11 0 108.931-13.616 116.495-84.723h-231.479c4.543 71.11 43.873 84.723 114.98 84.723zM140.504 671.803c0 3.025 1.516 4.543 4.543 4.543h761.010c3.025 0 4.543-1.516 4.543-4.543v-37.826c0-13.616-10.587-24.207-24.207-24.207h-723.188c-13.616 0-24.207 10.587-24.207 24.207v37.826zM512.686 565.898v-620.308h-134.656v620.308h134.656zM558.075 565.898h134.656v-620.308h-134.656v620.308zM226.741 16.699l-39.335 549.198h146.757v-620.308h-28.743c-43.873 0-78.675 31.769-78.675 71.11zM834.945 16.699c0-39.335-34.8-71.11-78.675-71.11h-18.156v620.308h125.578l-28.743-549.198z"  horiz-adv-x="1024" />

    
    <glyph glyph-name="exit" unicode="&#58951;" d="M918.4 406.4l-160 160c-12.8 12.8-32 12.8-44.8 0-12.8-12.8-12.8-32 0-44.8l105.6-105.6L512 416c-19.2 0-32-12.8-32-32s12.8-32 32-32l307.2 0-105.6-105.6c-12.8-12.8-12.8-32 0-44.8 6.4-6.4 12.8-9.6 22.4-9.6 9.6 0 16 3.2 22.4 9.6l160 163.2c0 0 0 3.2 3.2 3.2C931.2 377.6 931.2 396.8 918.4 406.4zM832 160c-19.2 0-32-12.8-32-32l0-64c0-19.2-12.8-32-32-32L224 32c-19.2 0-32 12.8-32 32L192 704c0 19.2 12.8 32 32 32l544 0c19.2 0 32-12.8 32-32l0-64c0-19.2 12.8-32 32-32s32 12.8 32 32L864 704c0 54.4-41.6 96-96 96L224 800C169.6 800 128 758.4 128 704l0-640c0-54.4 41.6-96 96-96l544 0c54.4 0 96 41.6 96 96l0 64C864 147.2 851.2 160 832 160z"  horiz-adv-x="1024" />

    
    <glyph glyph-name="add" unicode="&#58881;" d="M512-128C229.248-128 0 101.248 0 384S229.248 896 512 896s512-229.248 512-512-229.248-512-512-512z m0 896C299.968 768 128 596.032 128 384s171.968-384 384-384 384 171.968 384 384S724.032 768 512 768z m192-448h-128v-128c0-35.392-28.608-64-64-64a64 64 0 0 0-64 64v128h-128a64 64 0 1 0 0 128h128v128a64.021333 64.021333 0 0 0 128 0v-128h128a64 64 0 0 0 64-64c0-35.392-28.608-64-64-64z"  horiz-adv-x="1024" />

    
    <glyph glyph-name="fullscreen" unicode="&#58935;" d="M396.8 667.77088v25.6H204.8v-192h25.6V649.67168l182.18496-182.19008 18.10432 18.0992-182.19008 182.19008zM627.2 693.37088v-25.6h148.3008L593.31072 485.5808l18.0992-18.0992L793.6 649.67168v-148.3008h25.6v192zM412.58496 304.86016L230.4 122.67008v148.3008h-25.6v-192h192v25.6H248.4992l182.19008 182.19008zM793.6 122.67008l-182.19008 182.19008-18.0992-18.0992 182.19008-182.19008H627.2v-25.6H819.2v192h-25.6z"  horiz-adv-x="1024" />

    
    <glyph glyph-name="ic-published" unicode="&#58920;" d="M558.66 97.63L419.464-6.876a45.467 45.467 0 0 0-27.299-9.107c-25.11 0-45.466 20.356-45.466 45.467V203.722L118.135 318.125c-22.455 11.239-31.547 38.553-20.308 61.008a45.467 45.467 0 0 0 19.367 19.823l714.183 378.495c22.187 11.759 49.705 3.305 61.464-18.882a45.467 45.467 0 0 0 4.516-29.662l-126.032-672.88c-4.623-24.681-28.379-40.942-53.06-36.319a45.467 45.467 0 0 0-11.98 4.031L558.659 97.63z m-43.993 22.02L390.7 181.697v-152.214c0-0.81 0.656-1.467 1.466-1.467 0.191 0 41.025 30.544 122.501 91.632z m293.328 595.613L137.799 360.079c-0.988-1.364-0.695-2.245 0.03-2.608l226.088-113.163 444.078 470.955z m37.472-24.397L405.002 223.744l160.783-80.477c0.277-0.131 0.552-0.269 0.824-0.412l159.37-79.769c1.182-0.28 1.949 0.245 2.098 1.042l117.39 626.738z"  horiz-adv-x="1024" />

    
    <glyph glyph-name="preview" unicode="&#59134;" d="M512.4 552.5c-172.9 0-288.1-169.1-288.1-169.1s115.3-169.1 288.1-169.1c172.9 0 288.1 169.1 288.1 169.1S685.3 552.5 512.4 552.5z m0-280.6c-63.3 0-114.6 50.2-114.6 112.1 0 61.9 51.3 112.1 114.6 112.1S627.1 445.9 627.1 384s-51.4-112.1-114.7-112.1zM453.8 384.7c0-14.7 6.2-29.3 16.8-39.7 10.6-10.4 25.5-16.4 40.5-16.4s29.9 6 40.5 16.4c10.6 10.4 16.8 25 16.8 39.7 0 14.7-6.2 29.3-16.8 39.7-10.6 10.4-25.5 16.4-40.5 16.4s-29.9-6-40.5-16.4c-10.7-10.4-16.8-25-16.8-39.7zM256 736h-50.6c-42.5 0-77.4-36.7-77.4-81.7V608h31.9c-0.2 15.6-0.5 31.1-0.7 46.7 0 26.9 20.8 48.9 46.2 49l50.6 0.3v32zM768 32h50.6c42.5 0 77.4 36.7 77.4 81.7V160h-31.9c0.2-15.6 0.5-31.1 0.7-46.7 0-26.9-20.8-48.9-46.2-49l-50.6-0.3v-32zM256 32h-50.6c-42.5 0-77.4 36.7-77.4 81.7V160h31.9c-0.2-15.6-0.5-31.1-0.7-46.7 0-26.9 20.8-48.9 46.2-49l50.6-0.3v-32zM768 736h50.6c42.5 0 77.4-36.7 77.4-81.7V608h-31.9c0.2 15.6 0.5 31.1 0.7 46.7 0 26.9-20.8 48.9-46.2 49L768 704v32z"  horiz-adv-x="1024" />

    
    <glyph glyph-name="save" unicode="&#58882;" d="M628.363636 523.636364c13.963636 0 23.272727 9.309091 23.272728 23.272727v139.636364c0 13.963636-9.309091 23.272727-23.272728 23.272727s-23.272727-9.309091-23.272727-23.272727v-139.636364c0-13.963636 9.309091-23.272727 23.272727-23.272727zM954.181818 276.945455m-23.272727 0a23.272727 23.272727 0 1 1 46.545454 0 23.272727 23.272727 0 1 1-46.545454 0ZM977.454545 756.363636c0 51.2-41.890909 93.090909-93.090909 93.090909H139.636364c-51.2 0-93.090909-41.890909-93.090909-93.090909v-744.727272c0-51.2 41.890909-93.090909 93.090909-93.090909h744.727272c51.2 0 93.090909 41.890909 93.090909 93.090909v144.290909c0 13.963636-9.309091 23.272727-23.272727 23.272727s-23.272727-9.309091-23.272727-18.618182V11.636364c0-23.272727-23.272727-46.545455-46.545455-46.545455H139.636364c-23.272727 0-46.545455 23.272727-46.545455 46.545455V756.363636c0 23.272727 23.272727 46.545455 46.545455 46.545455h93.090909v-325.818182c0-27.927273 23.272727-46.545455 46.545454-46.545454h465.454546c23.272727 0 46.545455 18.618182 46.545454 46.545454V802.909091h93.090909c23.272727 0 46.545455-23.272727 46.545455-46.545455v-367.709091c0-13.963636 9.309091-23.272727 23.272727-23.272727s23.272727 9.309091 23.272727 23.272727V756.363636z m-232.727272-251.345454c0-13.963636-13.963636-27.927273-27.927273-27.927273H307.2c-13.963636 0-27.927273 13.963636-27.927273 27.927273V802.909091h465.454546v-297.890909z"  horiz-adv-x="1024" />

    


  </font>
</defs>
</svg>
