<?xml version="1.0" standalone="no"?>
<!DOCTYPE svg PUBLIC "-//W3C//DTD SVG 20010904//EN"
 "http://www.w3.org/TR/2001/REC-SVG-20010904/DTD/svg10.dtd">
<svg version="1.0" xmlns="http://www.w3.org/2000/svg"
 width="136.000000pt" height="114.000000pt" viewBox="0 0 136.000000 114.000000"
 preserveAspectRatio="xMidYMid meet">
<metadata>
Created by potrace 1.16, written by Peter Selinger 2001-2019
</metadata>
<g transform="translate(0.000000,114.000000) scale(0.100000,-0.100000)"
fill="#000000" stroke="none">
<path d="M130 1051 c0 -6 82 -152 181 -326 l182 -315 17 27 c17 27 17 30 0 58
-87 146 -280 489 -280 496 0 6 34 9 81 7 l81 -3 167 -290 c92 -159 176 -305
186 -323 l20 -33 -37 -67 c-20 -37 -42 -67 -48 -67 -6 0 -28 30 -48 66 l-36
66 23 45 c22 40 23 46 9 72 l-15 28 -42 -72 -42 -73 73 -128 c40 -71 75 -129
78 -129 3 0 38 58 78 129 l73 128 -204 354 -203 354 -147 3 c-92 2 -147 -1
-147 -7z"/>
<path d="M926 1038 c-7 -13 -58 -99 -111 -193 -81 -142 -96 -174 -88 -194 4
-13 13 -26 18 -27 6 -2 58 81 116 184 l106 187 82 3 c48 2 81 -1 81 -7 0 -8
-212 -383 -281 -496 -17 -30 -17 -32 0 -58 l18 -28 181 316 c100 174 182 320
182 325 0 6 -59 10 -145 10 -139 0 -145 -1 -159 -22z"/>
</g>
</svg>
